# Blender v2.79 (sub 0) OBJ File: ''
# www.blender.org
mtllib 1.mtl
o Grid_Grid.001
v -0.025 0 0
v -0.0125 0 0
v 0 0 0
v 0.0125 0 0
v 0.025 0 0
v -0.025 -0.0125 0
v -0.0125 -0.0125 0
v 0 -0.0125 0
v 0.0125 -0.0125 0
v 0.025 -0.0125 0
v -0.025 -0.025 0
v -0.0125 -0.025 0
v 0 -0.025 0
v 0.0125 -0.025 0
v 0.025 -0.025 0
v -0.025 -0.0375 0
v -0.0125 -0.0375 0
v 0 -0.0375 0
v 0.0125 -0.0375 0
v 0.025 -0.0375 0
v -0.025 -0.05 0
v -0.0125 -0.05 0
v 0 -0.05 0
v 0.0125 -0.05 0
v 0.025 -0.05 0
v -0.025 -0.0625 0
v -0.0125 -0.0625 0
v 0 -0.0625 0
v 0.0125 -0.0625 0
v 0.025 -0.0625 0
v -0.025 -0.075 0
v -0.0125 -0.075 0
v 0 -0.075 0
v 0.0125 -0.075 0
v 0.025 -0.075 0
v -0.025 -0.0875 0
v -0.0125 -0.0875 0
v 0 -0.0875 0
v 0.0125 -0.0875 0
v 0.025 -0.0875 0
v -0.025 -0.1 0
v -0.0125 -0.1 0
v 0 -0.1 0
v 0.0125 -0.1 0
v 0.025 -0.1 0
v -0.025 -0.1125 0
v -0.0125 -0.1125 0
v 0 -0.1125 0
v 0.0125 -0.1125 0
v 0.025 -0.1125 0
v -0.025 -0.125 0
v -0.0125 -0.125 0
v 0 -0.125 0
v 0.0125 -0.125 0
v 0.025 -0.125 0
v -0.025 -0.1375 0
v -0.0125 -0.1375 0
v 0 -0.1375 0
v 0.0125 -0.1375 0
v 0.025 -0.1375 0
v -0.025 -0.15 0
v -0.0125 -0.15 0
v 0 -0.15 0
v 0.0125 -0.15 0
v 0.025 -0.15 0
v -0.025 -0.1625 0
v -0.0125 -0.1625 0
v 0 -0.1625 0
v 0.0125 -0.1625 0
v 0.025 -0.1625 0
v -0.025 -0.175 0
v -0.0125 -0.175 0
v 0 -0.175 0
v 0.0125 -0.175 0
v 0.025 -0.175 0
v -0.025 -0.1875 0
v -0.0125 -0.1875 0
v 0 -0.1875 0
v 0.0125 -0.1875 0
v 0.025 -0.1875 0
v -0.025 -0.2 0
v -0.0125 -0.2 0
v 0 -0.2 0
v 0.0125 -0.2 0
v 0.025 -0.2 0
v -0.025 -0.2125 0
v -0.0125 -0.2125 0
v 0 -0.2125 0
v 0.0125 -0.2125 0
v 0.025 -0.2125 0
v -0.025 -0.225 0
v -0.0125 -0.225 0
v 0 -0.225 0
v 0.0125 -0.225 0
v 0.025 -0.225 0
v -0.025 -0.2375 0
v -0.0125 -0.2375 0
v 0 -0.2375 0
v 0.0125 -0.2375 0
v 0.025 -0.2375 0
v -0.025 -0.25 0
v -0.0125 -0.25 0
v 0 -0.25 0
v 0.0125 -0.25 0
v 0.025 -0.25 0
v -0.025 -0.2625 0
v -0.0125 -0.2625 0
v 0 -0.2625 0
v 0.0125 -0.2625 0
v 0.025 -0.2625 0
v -0.025 -0.275 0
v -0.0125 -0.275 0
v 0 -0.275 0
v 0.0125 -0.275 0
v 0.025 -0.275 0
v -0.025 -0.2875 0
v -0.0125 -0.2875 0
v 0 -0.2875 0
v 0.0125 -0.2875 0
v 0.025 -0.2875 0
v -0.025 -0.3 0
v -0.0125 -0.3 0
v 0 -0.3 0
v 0.0125 -0.3 0
v 0.025 -0.3 0
v -0.025 -0.3125 0
v -0.0125 -0.3125 0
v 0 -0.3125 0
v 0.0125 -0.3125 0
v 0.025 -0.3125 0
v -0.025 -0.325 0
v -0.0125 -0.325 0
v 0 -0.325 0
v 0.0125 -0.325 0
v 0.025 -0.325 0
v -0.025 -0.3375 0
v -0.0125 -0.3375 0
v 0 -0.3375 0
v 0.0125 -0.3375 0
v 0.025 -0.3375 0
v -0.025 -0.35 0
v -0.0125 -0.35 0
v 0 -0.35 0
v 0.0125 -0.35 0
v 0.025 -0.35 0
v -0.025 -0.3625 0
v -0.0125 -0.3625 0
v 0 -0.3625 0
v 0.0125 -0.3625 0
v 0.025 -0.3625 0
v -0.025 -0.375 0
v -0.0125 -0.375 0
v 0 -0.375 0
v 0.0125 -0.375 0
v 0.025 -0.375 0
v -0.025 -0.3875 0
v -0.0125 -0.3875 0
v 0 -0.3875 0
v 0.0125 -0.3875 0
v 0.025 -0.3875 0
v -0.025 -0.4 0
v -0.0125 -0.4 0
v 0 -0.4 0
v 0.0125 -0.4 0
v 0.025 -0.4 0
v -0.025 -0.4125 0
v -0.0125 -0.4125 0
v 0 -0.4125 0
v 0.0125 -0.4125 0
v 0.025 -0.4125 0
v -0.025 -0.425 0
v -0.0125 -0.425 0
v 0 -0.425 0
v 0.0125 -0.425 0
v 0.025 -0.425 0
v -0.025 -0.4375 0
v -0.0125 -0.4375 0
v 0 -0.4375 0
v 0.0125 -0.4375 0
v 0.025 -0.4375 0
v -0.025 -0.45 0
v -0.0125 -0.45 0
v 0 -0.45 0
v 0.0125 -0.45 0
v 0.025 -0.45 0
v -0.025 -0.4625 0
v -0.0125 -0.4625 0
v 0 -0.4625 0
v 0.0125 -0.4625 0
v 0.025 -0.4625 0
v -0.025 -0.475 0
v -0.0125 -0.475 0
v 0 -0.475 0
v 0.0125 -0.475 0
v 0.025 -0.475 0
v -0.025 -0.4875 0
v -0.0125 -0.4875 0
v 0 -0.4875 0
v 0.0125 -0.4875 0
v 0.025 -0.4875 0
v -0.025 -0.5 0
v -0.0125 -0.5 0
v 0 -0.5 0
v 0.0125 -0.5 0
v 0.025 -0.5 0
v -0.025 -0.5125 0
v -0.0125 -0.5125 0
v 0 -0.5125 0
v 0.0125 -0.5125 0
v 0.025 -0.5125 0
v -0.025 -0.525 0
v -0.0125 -0.525 0
v 0 -0.525 0
v 0.0125 -0.525 0
v 0.025 -0.525 0
v -0.025 -0.5375 0
v -0.0125 -0.5375 0
v 0 -0.5375 0
v 0.0125 -0.5375 0
v 0.025 -0.5375 0
v -0.025 -0.55 0
v -0.0125 -0.55 0
v 0 -0.55 0
v 0.0125 -0.55 0
v 0.025 -0.55 0
v -0.025 -0.5625 0
v -0.0125 -0.5625 0
v 0 -0.5625 0
v 0.0125 -0.5625 0
v 0.025 -0.5625 0
v -0.025 -0.575 0
v -0.0125 -0.575 0
v 0 -0.575 0
v 0.0125 -0.575 0
v 0.025 -0.575 0
v -0.025 -0.5875 0
v -0.0125 -0.5875 0
v 0 -0.5875 0
v 0.0125 -0.5875 0
v 0.025 -0.5875 0
v -0.025 -0.6 0
v -0.0125 -0.6 0
v 0 -0.6 0
v 0.0125 -0.6 0
v 0.025 -0.6 0
v -0.025 -0.6125 0
v -0.0125 -0.6125 0
v 0 -0.6125 0
v 0.0125 -0.6125 0
v 0.025 -0.6125 0
v -0.025 -0.625 0
v -0.0125 -0.625 0
v 0 -0.625 0
v 0.0125 -0.625 0
v 0.025 -0.625 0
v -0.025 -0.6375 0
v -0.0125 -0.6375 0
v 0 -0.6375 0
v 0.0125 -0.6375 0
v 0.025 -0.6375 0
v -0.025 -0.65 0
v -0.0125 -0.65 0
v 0 -0.65 0
v 0.0125 -0.65 0
v 0.025 -0.65 0
v -0.025 -0.6625 0
v -0.0125 -0.6625 0
v 0 -0.6625 0
v 0.0125 -0.6625 0
v 0.025 -0.6625 0
v -0.025 -0.675 0
v -0.0125 -0.675 0
v 0 -0.675 0
v 0.0125 -0.675 0
v 0.025 -0.675 0
v -0.025 -0.6875 0
v -0.0125 -0.6875 0
v 0 -0.6875 0
v 0.0125 -0.6875 0
v 0.025 -0.6875 0
v -0.025 -0.7 0
v -0.0125 -0.7 0
v 0 -0.7 0
v 0.0125 -0.7 0
v 0.025 -0.7 0
v -0.025 -0.7125 0
v -0.0125 -0.7125 0
v 0 -0.7125 0
v 0.0125 -0.7125 0
v 0.025 -0.7125 0
v -0.025 -0.725 0
v -0.0125 -0.725 0
v 0 -0.725 0
v 0.0125 -0.725 0
v 0.025 -0.725 0
v -0.025 -0.7375 0
v -0.0125 -0.7375 0
v 0 -0.7375 0
v 0.0125 -0.7375 0
v 0.025 -0.7375 0
v -0.025 -0.75 0
v -0.0125 -0.75 0
v 0 -0.75 0
v 0.0125 -0.75 0
v 0.025 -0.75 0
vn 0.0000 0.0000 1.0000
usemtl None
s off
f 1//1 6//1 7//1 2//1
f 2//1 7//1 8//1 3//1
f 3//1 8//1 9//1 4//1
f 4//1 9//1 10//1 5//1
f 6//1 11//1 12//1 7//1
f 7//1 12//1 13//1 8//1
f 8//1 13//1 14//1 9//1
f 9//1 14//1 15//1 10//1
f 11//1 16//1 17//1 12//1
f 12//1 17//1 18//1 13//1
f 13//1 18//1 19//1 14//1
f 14//1 19//1 20//1 15//1
f 16//1 21//1 22//1 17//1
f 17//1 22//1 23//1 18//1
f 18//1 23//1 24//1 19//1
f 19//1 24//1 25//1 20//1
f 21//1 26//1 27//1 22//1
f 22//1 27//1 28//1 23//1
f 23//1 28//1 29//1 24//1
f 24//1 29//1 30//1 25//1
f 26//1 31//1 32//1 27//1
f 27//1 32//1 33//1 28//1
f 28//1 33//1 34//1 29//1
f 29//1 34//1 35//1 30//1
f 31//1 36//1 37//1 32//1
f 32//1 37//1 38//1 33//1
f 33//1 38//1 39//1 34//1
f 34//1 39//1 40//1 35//1
f 36//1 41//1 42//1 37//1
f 37//1 42//1 43//1 38//1
f 38//1 43//1 44//1 39//1
f 39//1 44//1 45//1 40//1
f 41//1 46//1 47//1 42//1
f 42//1 47//1 48//1 43//1
f 43//1 48//1 49//1 44//1
f 44//1 49//1 50//1 45//1
f 46//1 51//1 52//1 47//1
f 47//1 52//1 53//1 48//1
f 48//1 53//1 54//1 49//1
f 49//1 54//1 55//1 50//1
f 51//1 56//1 57//1 52//1
f 52//1 57//1 58//1 53//1
f 53//1 58//1 59//1 54//1
f 54//1 59//1 60//1 55//1
f 56//1 61//1 62//1 57//1
f 57//1 62//1 63//1 58//1
f 58//1 63//1 64//1 59//1
f 59//1 64//1 65//1 60//1
f 61//1 66//1 67//1 62//1
f 62//1 67//1 68//1 63//1
f 63//1 68//1 69//1 64//1
f 64//1 69//1 70//1 65//1
f 66//1 71//1 72//1 67//1
f 67//1 72//1 73//1 68//1
f 68//1 73//1 74//1 69//1
f 69//1 74//1 75//1 70//1
f 71//1 76//1 77//1 72//1
f 72//1 77//1 78//1 73//1
f 73//1 78//1 79//1 74//1
f 74//1 79//1 80//1 75//1
f 76//1 81//1 82//1 77//1
f 77//1 82//1 83//1 78//1
f 78//1 83//1 84//1 79//1
f 79//1 84//1 85//1 80//1
f 81//1 86//1 87//1 82//1
f 82//1 87//1 88//1 83//1
f 83//1 88//1 89//1 84//1
f 84//1 89//1 90//1 85//1
f 86//1 91//1 92//1 87//1
f 87//1 92//1 93//1 88//1
f 88//1 93//1 94//1 89//1
f 89//1 94//1 95//1 90//1
f 91//1 96//1 97//1 92//1
f 92//1 97//1 98//1 93//1
f 93//1 98//1 99//1 94//1
f 94//1 99//1 100//1 95//1
f 96//1 101//1 102//1 97//1
f 97//1 102//1 103//1 98//1
f 98//1 103//1 104//1 99//1
f 99//1 104//1 105//1 100//1
f 101//1 106//1 107//1 102//1
f 102//1 107//1 108//1 103//1
f 103//1 108//1 109//1 104//1
f 104//1 109//1 110//1 105//1
f 106//1 111//1 112//1 107//1
f 107//1 112//1 113//1 108//1
f 108//1 113//1 114//1 109//1
f 109//1 114//1 115//1 110//1
f 111//1 116//1 117//1 112//1
f 112//1 117//1 118//1 113//1
f 113//1 118//1 119//1 114//1
f 114//1 119//1 120//1 115//1
f 116//1 121//1 122//1 117//1
f 117//1 122//1 123//1 118//1
f 118//1 123//1 124//1 119//1
f 119//1 124//1 125//1 120//1
f 121//1 126//1 127//1 122//1
f 122//1 127//1 128//1 123//1
f 123//1 128//1 129//1 124//1
f 124//1 129//1 130//1 125//1
f 126//1 131//1 132//1 127//1
f 127//1 132//1 133//1 128//1
f 128//1 133//1 134//1 129//1
f 129//1 134//1 135//1 130//1
f 131//1 136//1 137//1 132//1
f 132//1 137//1 138//1 133//1
f 133//1 138//1 139//1 134//1
f 134//1 139//1 140//1 135//1
f 136//1 141//1 142//1 137//1
f 137//1 142//1 143//1 138//1
f 138//1 143//1 144//1 139//1
f 139//1 144//1 145//1 140//1
f 141//1 146//1 147//1 142//1
f 142//1 147//1 148//1 143//1
f 143//1 148//1 149//1 144//1
f 144//1 149//1 150//1 145//1
f 146//1 151//1 152//1 147//1
f 147//1 152//1 153//1 148//1
f 148//1 153//1 154//1 149//1
f 149//1 154//1 155//1 150//1
f 151//1 156//1 157//1 152//1
f 152//1 157//1 158//1 153//1
f 153//1 158//1 159//1 154//1
f 154//1 159//1 160//1 155//1
f 156//1 161//1 162//1 157//1
f 157//1 162//1 163//1 158//1
f 158//1 163//1 164//1 159//1
f 159//1 164//1 165//1 160//1
f 161//1 166//1 167//1 162//1
f 162//1 167//1 168//1 163//1
f 163//1 168//1 169//1 164//1
f 164//1 169//1 170//1 165//1
f 166//1 171//1 172//1 167//1
f 167//1 172//1 173//1 168//1
f 168//1 173//1 174//1 169//1
f 169//1 174//1 175//1 170//1
f 171//1 176//1 177//1 172//1
f 172//1 177//1 178//1 173//1
f 173//1 178//1 179//1 174//1
f 174//1 179//1 180//1 175//1
f 176//1 181//1 182//1 177//1
f 177//1 182//1 183//1 178//1
f 178//1 183//1 184//1 179//1
f 179//1 184//1 185//1 180//1
f 181//1 186//1 187//1 182//1
f 182//1 187//1 188//1 183//1
f 183//1 188//1 189//1 184//1
f 184//1 189//1 190//1 185//1
f 186//1 191//1 192//1 187//1
f 187//1 192//1 193//1 188//1
f 188//1 193//1 194//1 189//1
f 189//1 194//1 195//1 190//1
f 191//1 196//1 197//1 192//1
f 192//1 197//1 198//1 193//1
f 193//1 198//1 199//1 194//1
f 194//1 199//1 200//1 195//1
f 196//1 201//1 202//1 197//1
f 197//1 202//1 203//1 198//1
f 198//1 203//1 204//1 199//1
f 199//1 204//1 205//1 200//1
f 201//1 206//1 207//1 202//1
f 202//1 207//1 208//1 203//1
f 203//1 208//1 209//1 204//1
f 204//1 209//1 210//1 205//1
f 206//1 211//1 212//1 207//1
f 207//1 212//1 213//1 208//1
f 208//1 213//1 214//1 209//1
f 209//1 214//1 215//1 210//1
f 211//1 216//1 217//1 212//1
f 212//1 217//1 218//1 213//1
f 213//1 218//1 219//1 214//1
f 214//1 219//1 220//1 215//1
f 216//1 221//1 222//1 217//1
f 217//1 222//1 223//1 218//1
f 218//1 223//1 224//1 219//1
f 219//1 224//1 225//1 220//1
f 221//1 226//1 227//1 222//1
f 222//1 227//1 228//1 223//1
f 223//1 228//1 229//1 224//1
f 224//1 229//1 230//1 225//1
f 226//1 231//1 232//1 227//1
f 227//1 232//1 233//1 228//1
f 228//1 233//1 234//1 229//1
f 229//1 234//1 235//1 230//1
f 231//1 236//1 237//1 232//1
f 232//1 237//1 238//1 233//1
f 233//1 238//1 239//1 234//1
f 234//1 239//1 240//1 235//1
f 236//1 241//1 242//1 237//1
f 237//1 242//1 243//1 238//1
f 238//1 243//1 244//1 239//1
f 239//1 244//1 245//1 240//1
f 241//1 246//1 247//1 242//1
f 242//1 247//1 248//1 243//1
f 243//1 248//1 249//1 244//1
f 244//1 249//1 250//1 245//1
f 246//1 251//1 252//1 247//1
f 247//1 252//1 253//1 248//1
f 248//1 253//1 254//1 249//1
f 249//1 254//1 255//1 250//1
f 251//1 256//1 257//1 252//1
f 252//1 257//1 258//1 253//1
f 253//1 258//1 259//1 254//1
f 254//1 259//1 260//1 255//1
f 256//1 261//1 262//1 257//1
f 257//1 262//1 263//1 258//1
f 258//1 263//1 264//1 259//1
f 259//1 264//1 265//1 260//1
f 261//1 266//1 267//1 262//1
f 262//1 267//1 268//1 263//1
f 263//1 268//1 269//1 264//1
f 264//1 269//1 270//1 265//1
f 266//1 271//1 272//1 267//1
f 267//1 272//1 273//1 268//1
f 268//1 273//1 274//1 269//1
f 269//1 274//1 275//1 270//1
f 271//1 276//1 277//1 272//1
f 272//1 277//1 278//1 273//1
f 273//1 278//1 279//1 274//1
f 274//1 279//1 280//1 275//1
f 276//1 281//1 282//1 277//1
f 277//1 282//1 283//1 278//1
f 278//1 283//1 284//1 279//1
f 279//1 284//1 285//1 280//1
f 281//1 286//1 287//1 282//1
f 282//1 287//1 288//1 283//1
f 283//1 288//1 289//1 284//1
f 284//1 289//1 290//1 285//1
f 286//1 291//1 292//1 287//1
f 287//1 292//1 293//1 288//1
f 288//1 293//1 294//1 289//1
f 289//1 294//1 295//1 290//1
f 291//1 296//1 297//1 292//1
f 292//1 297//1 298//1 293//1
f 293//1 298//1 299//1 294//1
f 294//1 299//1 300//1 295//1
f 296//1 301//1 302//1 297//1
f 297//1 302//1 303//1 298//1
f 298//1 303//1 304//1 299//1
f 299//1 304//1 305//1 300//1
